<svg id="Capa_1" enable-background="new 0 0 512 512" height="512" viewBox="0 0 512 512" width="512" xmlns="http://www.w3.org/2000/svg"><g><path d="m512 206.85v15.98c0 126.84-64.37 207.75-66.97 213.17h-378.06c-2.74-5.7-66.97-85.95-66.97-213.17v-15.98z" fill="#fff5f5"/><path d="m512 206.85v15.98c0 126.84-64.37 207.75-66.97 213.17h-189.03v-229.15z" fill="#efe2dd"/><path d="m512 206.85-15 4.15s-108.45 30-241 30-241-30-241-30l-15-4.15 62.73-36.49 14.36-43.08c10.23-30.67 38.82-51.28 71.16-51.28h215.5c32.34 0 60.93 20.61 71.16 51.28l14.36 43.08z" fill="#efe2dd"/><path d="m512 206.85-15 4.15s-108.45 30-241 30v-165h107.75c32.34 0 60.93 20.61 71.16 51.28l14.36 43.08z" fill="#e1d3ce"/><path d="m301 316v30h-30v30h-30v-30h-30v-30h30v-30h30v30z" fill="#ffa8b4"/><path d="m301 316v30h-30v30h-15v-90h15v30z" fill="#ff8597"/></g></svg>