<svg id="Capa_1" enable-background="new 0 0 512 512" height="512" viewBox="0 0 512 512" width="512" xmlns="http://www.w3.org/2000/svg"><g><g><path d="m288.065 71.629h-64.129c-17.709 0-32.064-14.356-32.064-32.064 0-17.709 14.356-32.064 32.064-32.064h64.129c17.709 0 32.064 14.356 32.064 32.064 0 17.708-14.356 32.064-32.064 32.064z" fill="#f6d190"/><path d="m239.968 47.581c-17.709 0-32.065-14.356-32.065-32.065 0-1.293.232-2.523.381-3.776-9.751 5.5-16.413 15.831-16.413 27.824 0 17.708 14.355 32.065 32.065 32.065h64.129c14.924 0 27.355-10.243 30.931-24.048z" fill="#ecbd83"/><path d="m199.887 496.484c0 4.427 3.589 8.016 8.016 8.016h16.032c4.427 0 8.016-3.589 8.016-8.016v-32.065h-32.065v32.065z" fill="#dad8db"/><path d="m280.048 464.419v32.065c0 4.427 3.589 8.016 8.016 8.016h16.032c4.427 0 8.016-3.589 8.016-8.016v-32.065z" fill="#dad8db"/><path d="m312.113 71.629h-24.048c-4.427 0-8.016-3.589-8.016-8.016v-16.032c0-4.427-3.589-8.016-8.016-8.016h-32.065c-4.427 0-8.016 3.589-8.016 8.016v16.032c0 4.427-3.589 8.016-8.016 8.016h-24.048c-22.136 0-40.081 17.945-40.081 40.081v158.43c0 6.073 3.431 11.624 8.863 14.34l23.202 11.601v168.339c0 4.427 3.589 8.016 8.016 8.016h32.065c4.427 0 8.016-3.589 8.016-8.016v-160.323c0-8.855 7.178-16.032 16.032-16.032s16.032 7.178 16.032 16.032v160.323c0 4.427 3.589 8.016 8.016 8.016h32.065c4.427 0 8.016-3.589 8.016-8.016v-168.339l23.202-11.601c5.432-2.716 8.863-8.267 8.863-14.34v-158.43c-.001-22.136-17.946-40.081-40.082-40.081z" fill="#eceaec"/><path d="m272.032 272.032h-32.065c-4.427 0-8.016-3.589-8.016-8.016v-216.435c0-4.427 3.589-8.016 8.016-8.016h32.065c4.427 0 8.016 3.589 8.016 8.016v216.436c0 4.426-3.589 8.015-8.016 8.015z" fill="#fff"/><g fill="#dad8db"><path d="m215.919 440.371v-318.701c0-12.848-5.003-24.926-14.088-34.009l-13.986-13.987c-16.21 5.137-28.039 20.125-28.039 38.036v158.43c0 6.073 3.431 11.624 8.863 14.34l23.202 11.601v168.339c0 4.427 3.589 8.016 8.016 8.016h32.065c4.427 0 8.016-3.589 8.016-8.016v-16.032h-16.032c-4.421-.001-8.017-3.597-8.017-8.017z"/><path d="m344.078 87.761c5.028 6.698 8.115 14.93 8.115 23.949v158.43c0 6.073-3.431 11.624-8.863 14.34l-23.202 11.601v-174.41c0-6.378 2.533-12.495 7.043-17.005z"/></g></g><g><path d="m318.705 64.596c5.59-6.824 8.951-15.542 8.951-25.032 0-21.815-17.748-39.564-39.564-39.564h-64.156c-21.816 0-39.564 17.749-39.564 39.564 0 9.488 3.36 18.205 8.949 25.029-23.138 3.21-41.013 23.109-41.013 47.116v158.43c0 8.971 4.984 17.036 13.008 21.048l19.056 9.528v163.704c0 5.836 3.242 10.925 8.016 13.574v18.491c0 8.556 6.96 15.516 15.516 15.516h16.032c8.556 0 15.516-6.96 15.516-15.516v-18.491c4.774-2.649 8.016-7.738 8.016-13.574v-160.322c0-4.705 3.828-8.532 8.532-8.532s8.532 3.828 8.532 8.532v160.323c0 5.836 3.242 10.925 8.016 13.574v18.491c0 8.556 6.96 15.516 15.516 15.516h16.032c8.556 0 15.516-6.96 15.516-15.516v-18.491c4.774-2.649 8.016-7.738 8.016-13.574v-163.704l19.056-9.528c8.024-4.011 13.008-12.077 13.008-21.048v-158.43c.001-23.999-17.861-43.893-40.987-47.114zm-94.769-49.596h64.156c13.545 0 24.564 11.02 24.564 24.564s-11.02 24.565-24.564 24.565h-.027c-.285 0-.516-.232-.516-.516v-16.032c0-8.556-6.96-15.516-15.516-15.516h-32.064c-8.556 0-15.516 6.96-15.516 15.516v16.032c0 .285-.231.516-.516.516-13.545 0-24.564-11.02-24.564-24.565s11.018-24.564 24.563-24.564zm-51.913 262.771c-2.909-1.455-4.716-4.379-4.716-7.631v-158.43c0-4.144.786-8.106 2.203-11.755l10.014 10.015c3.126 3.125 4.847 7.281 4.847 11.701v162.274zm51.913 219.229h-16.032c-.285 0-.516-.231-.516-.516v-16.548h17.064v16.548c0 .285-.232.516-.516.516zm80.161 0h-16.032c-.285 0-.516-.231-.516-.516v-16.548h17.064v16.548c0 .285-.232.516-.516.516zm40.596-226.86c0 3.253-1.807 6.177-4.716 7.631l-12.348 6.174v-124.139c0-4.142-3.358-7.5-7.5-7.5s-7.5 3.358-7.5 7.5v304.613c0 .285-.231.516-.516.516h-32.064c-.285 0-.516-.231-.516-.516v-160.322c0-12.976-10.557-23.532-23.532-23.532s-23.532 10.556-23.532 23.532v160.323c0 .285-.231.516-.516.516h-32.064c-.285 0-.516-.231-.516-.516v-342.749c0-8.427-3.282-16.35-9.241-22.308l-11.935-11.936c5.765-5.156 13.367-8.298 21.692-8.298h24.564v184.887c0 4.142 3.358 7.5 7.5 7.5s7.5-3.358 7.5-7.5v-216.435c0-.285.231-.516.516-.516h32.064c.285 0 .516.231.516.516v16.032c0 8.556 6.96 15.516 15.516 15.516h24.048c8.325 0 15.927 3.142 21.692 8.298l-11.935 11.936c-5.959 5.959-9.241 13.881-9.241 22.308v6.071c0 4.142 3.358 7.5 7.5 7.5s7.5-3.358 7.5-7.5v-6.071c0-4.42 1.721-8.576 4.847-11.702l10.014-10.014c1.417 3.649 2.203 7.611 2.203 11.755z"/><path d="m264.016 136.274c-4.142 0-7.5 3.358-7.5 7.5v8.016c0 4.142 3.358 7.5 7.5 7.5s7.5-3.358 7.5-7.5v-8.016c0-4.142-3.358-7.5-7.5-7.5z"/><path d="m264.016 88.177c-4.142 0-7.5 3.358-7.5 7.5v8.016c0 4.142 3.358 7.5 7.5 7.5s7.5-3.358 7.5-7.5v-8.016c0-4.142-3.358-7.5-7.5-7.5z"/><path d="m264.016 232.468c-4.142 0-7.5 3.358-7.5 7.5v8.016c0 4.142 3.358 7.5 7.5 7.5s7.5-3.358 7.5-7.5v-8.016c0-4.142-3.358-7.5-7.5-7.5z"/><path d="m264.016 184.371c-4.142 0-7.5 3.358-7.5 7.5v8.016c0 4.142 3.358 7.5 7.5 7.5s7.5-3.358 7.5-7.5v-8.016c0-4.142-3.358-7.5-7.5-7.5z"/></g></g></svg>