<svg enable-background="new 0 0 24 24" height="512" viewBox="0 0 24 24" width="512" xmlns="http://www.w3.org/2000/svg"><path d="m24 7.24v10.51c0 1.24-1.01 2.25-2.25 2.25h-19.5c-1.24 0-2.25-1.01-2.25-2.25v-10.51l11.07 5.78c.58.3 1.28.3 1.86 0z" fill="#64b5f6"/><path d="m24 6.25v.99l-11.07 5.78c-.58.3-1.28.3-1.86 0l-11.07-5.78v-.99c0-1.24 1.01-2.25 2.25-2.25h19.5c1.24 0 2.25 1.01 2.25 2.25z" fill="#2196f3"/><path d="m21.75 20h-19.5c-1.241 0-2.25-1.009-2.25-2.25v-11.5c0-1.241 1.009-2.25 2.25-2.25h19.5c1.241 0 2.25 1.009 2.25 2.25v11.5c0 1.241-1.009 2.25-2.25 2.25zm-19.5-14.5c-.414 0-.75.336-.75.75v11.5c0 .414.336.75.75.75h19.5c.414 0 .75-.336.75-.75v-11.5c0-.414-.336-.75-.75-.75z"/><path d="m11.999 13.996c-.438 0-.875-.103-1.273-.309l-10.323-5.393c-.367-.191-.509-.644-.318-1.011.192-.368.646-.509 1.012-.317l10.32 5.39c.358.185.808.185 1.169-.002l10.317-5.388c.367-.193.82-.05 1.012.317s.05.82-.317 1.012l-10.32 5.39c-.402.207-.84.311-1.279.311z"/></svg>