<svg id="Capa_1" enable-background="new 0 0 512 512" height="512" viewBox="0 0 512 512" width="512" xmlns="http://www.w3.org/2000/svg"><g><path d="m476.4 213.093h-39.799c-3.088 0-5.601-2.512-5.601-5.601v-71.799c0-19.63-15.971-35.601-35.601-35.601h-278.798c-19.63 0-35.601 15.97-35.601 35.601v71.799c0 3.088-2.513 5.601-5.601 5.601h-39.798c-19.63 0-35.601 15.97-35.601 35.601v71.899h30v-71.899c0-3.088 2.513-5.601 5.601-5.601h39.799c19.63 0 35.601-15.97 35.601-35.601v-17.399h290v17.399c0 19.63 15.971 35.601 35.601 35.601h39.798c3.088 0 5.601 2.512 5.601 5.601v71.899h30v-71.899c-.001-19.631-15.972-35.601-35.601-35.601zm-365.4-53v-24.399c0-3.088 2.513-5.601 5.601-5.601h278.799c3.088 0 5.601 2.512 5.601 5.601v24.399z" fill="#0b799d"/><path d="m476.4 213.093h-39.799c-3.088 0-5.601-2.512-5.601-5.601v-71.799c0-19.63-15.971-35.601-35.601-35.601h-139.399v30h139.4c3.088 0 5.601 2.512 5.601 5.601v24.399h-145.001v30h145v17.399c0 19.63 15.971 35.601 35.601 35.601h39.799c3.088 0 5.601 2.512 5.601 5.601v71.899h30v-71.899c-.001-19.63-15.972-35.6-35.601-35.6z" fill="#07485e"/><path d="m300.013 304.329c-29.31-16.607-58.652-16.625-88.027 0v52.014c29.375-16.625 58.717-16.607 88.027 0z" fill="#b8457e"/><path d="m72.067 365.418h-72.067v-58.825h62.833z" fill="#b8457e"/><path d="m256 291.868v52.015c14.679-.002 29.35 4.153 44.013 12.462v-52.014c-14.663-8.31-29.334-12.466-44.013-12.463z" fill="#87325c"/><path d="m439.933 365.418h72.067v-58.825h-62.833z" fill="#87325c"/><path d="m72.067 374.283v-65.964c46.545-20.945 93.185-30.988 139.92-10v65.988c0 13.893-9.515 26.078-23.055 29.19-39.275 9.025-78.246-.572-116.865-19.214z" fill="#b3d8f4"/><path d="m158.572 411.907c-28.907 0-59.624-7.991-93.026-24.116l-8.479-4.093v-85.078l8.845-3.98c27.427-12.342 51.776-19.526 74.442-21.961 27.774-2.986 53.219.927 77.778 11.956l8.854 3.977v75.695c0 21.1-14.268 39.114-34.695 43.809-10.986 2.524-22.211 3.791-33.719 3.791zm-71.505-47.197c37.142 16.536 68.637 21.031 98.506 14.167 6.614-1.52 11.414-7.647 11.414-14.57v-55.877c-31.902-11.425-66.504-8.337-109.92 9.734z" fill="#ff80aa"/><path d="m439.933 374.283v-65.964c-46.545-20.945-93.185-30.988-139.92-10v65.988c0 13.893 9.515 26.078 23.055 29.19 39.276 9.025 78.246-.572 116.865-19.214z" fill="#87c0ed"/><path d="m353.428 411.907c-11.51 0-22.729-1.267-33.719-3.792-20.428-4.694-34.695-22.709-34.695-43.809v-75.695l8.854-3.977c58.315-26.189 114.806-6.833 152.221 10.005l8.845 3.98v85.078l-8.479 4.093c-33.401 16.124-64.123 24.117-93.027 24.117zm-38.414-103.477v55.876c0 6.923 4.8 13.051 11.414 14.57 29.869 6.865 61.363 2.37 98.506-14.167v-46.546c-43.416-18.07-78.019-21.157-109.92-9.733z" fill="#b8457e"/></g></svg>