<svg id="Capa_1" enable-background="new 0 0 512 512" height="512" viewBox="0 0 512 512" width="512" xmlns="http://www.w3.org/2000/svg"><path d="m403.606 257.405 40.591-145.709c3.121-11.205 14.735-17.758 25.941-14.637 11.205 3.121 17.758 14.735 14.637 25.941l-40.591 145.709" fill="#ffe582"/><path d="m470.138 97.06c-5.995-1.67-12.095-.551-16.961 2.549 7.592 4.856 11.478 14.258 8.933 23.391l-38.959 139.85 21.032 5.859 40.592-145.709c3.121-11.205-3.432-22.819-14.637-25.94z" fill="#eed05e"/><path d="m363.029 246.101 46.243-165.997c3.121-11.205 14.735-17.758 25.941-14.637 11.205 3.121 17.758 14.735 14.637 25.941l-46.243 165.997" fill="#ffe582"/><path d="m435.213 65.467c-5.995-1.67-12.095-.551-16.961 2.549 7.592 4.856 11.478 14.258 8.933 23.391l-44.611 160.138 21.032 5.859 46.244-165.996c3.121-11.205-3.432-22.819-14.637-25.941z" fill="#eed05e"/><path d="m363.029 246.101 37.766-135.565c3.122-11.205-3.432-22.819-14.637-25.941-11.205-3.121-22.819 3.432-25.941 14.637l-43.928 157.832c-2.348 8.436-14.233 8.648-16.88.3l-15.642-49.332c-3.534-11.082-15.382-17.201-26.464-13.668-11.082 3.534-17.201 15.382-13.668 26.464l45.465 140.825-48.185 87.723c-3.197 5.821-.133 13.101 6.265 14.884l169.997 47.358c6.249 1.741 12.533-2.658 13.035-9.125l7.877-101.321c13.788-18.829 24.061-39.995 30.324-62.476l42.809-153.669c3.121-11.205-3.432-22.819-14.637-25.941-11.205-3.121-22.819 3.432-25.941 14.637l-26.462 94.987" fill="#ffe582"/><g fill="#eed05e"><path d="m378.131 110.536-35.595 130.011 20.494 5.554 37.765-135.565c3.122-11.205-3.432-22.819-14.637-25.941-5.995-1.67-12.095-.551-16.961 2.549 7.592 4.857 11.478 14.259 8.934 23.392z"/><path d="m261.104 208.033 15.642 49.332c2.647 8.348 14.531 8.136 16.88-.3l2.659-9.555-12.517-39.476c-3.534-11.082-15.382-17.201-26.464-13.668-1.779.567-3.414 1.369-4.918 2.327 3.999 2.554 7.164 6.465 8.718 11.34z"/><path d="m496.586 159.085c-5.995-1.67-12.095-.551-16.961 2.549 7.592 4.856 11.478 14.258 8.933 23.391l-42.809 153.669c-6.263 22.482-16.536 43.647-30.324 62.476l-7.877 101.321c-.174 2.235-1.049 4.212-2.363 5.785l11.991 3.34c6.249 1.741 12.533-2.658 13.035-9.125l7.877-101.321c13.788-18.829 24.061-39.995 30.324-62.476l42.809-153.669c3.123-11.205-3.43-22.819-14.635-25.94z"/></g><path d="m240.915 449.376c-3.197 5.821-.133 13.101 6.265 14.884l169.997 47.358c6.249 1.741 12.533-2.658 13.035-9.125l2.442-31.409-176.748-48.999z" fill="#e7c33c"/><path d="m98.51 194.581-23.006-149.497c-1.769-11.496-12.523-19.382-24.02-17.613-11.496 1.769-19.382 12.523-17.613 24.02l23.007 149.497" fill="#ffe582"/><path d="m75.504 45.084c-1.769-11.496-12.523-19.382-24.019-17.613-2.997.461-5.74 1.544-8.14 3.081 4.926 3.147 8.536 8.3 9.495 14.531l22.878 152.197 22.792-2.699z" fill="#eed05e"/><path d="m140.142 188.174-26.21-170.313c-1.769-11.496-12.523-19.382-24.02-17.613-11.496 1.769-19.381 12.523-17.612 24.02l26.21 170.313" fill="#ffe582"/><path d="m114.016 18.404c-1.674-10.878-11.252-19.069-22.236-18.359-3.73.241-7.118 1.434-10.007 3.285 4.926 3.147 8.536 8.3 9.495 14.531l26.21 170.313s.188 1.043.477 2.925l22.187-2.925z" fill="#eed05e"/><path d="m140.142 188.174-21.405-139.089c-1.769-11.496 6.116-22.25 17.613-24.02 11.496-1.769 22.25 6.116 24.02 17.613l24.881 161.931c1.33 8.655 13.106 10.276 16.725 2.302l21.387-47.126c4.824-10.584 17.315-15.254 27.899-10.429 10.584 4.824 15.254 17.315 10.429 27.899l-61.86 134.432 37.43 92.822c2.484 6.159-1.424 13.025-7.987 14.035l-174.417 26.84c-6.412.987-12.128-4.127-11.86-10.608l4.207-101.539c-11.455-20.333-19.143-42.568-22.692-65.634l-24.264-157.665c-1.769-11.496 6.116-22.25 17.613-24.02 11.496-1.769 22.25 6.116 24.02 17.613l14.998 97.457" fill="#ffe582"/><path d="m19.216 103.531 14.998 97.457 22.14-3.407-14.474-94.05c-1.769-11.496-12.523-19.382-24.019-17.613-2.997.461-5.74 1.544-8.14 3.081 4.926 3.147 8.536 8.3 9.495 14.532z" fill="#eed05e"/><path d="m137.706 42.678 24.881 161.931c2.757 13.275 23.361 4.003 23.361 4.003l-25.578-165.934c-1.769-11.496-12.523-19.382-24.02-17.613-2.997.461-5.74 1.544-8.14 3.081 4.926 3.147 8.537 8.3 9.496 14.532z" fill="#eed05e"/><path d="m251.262 149.355c-6.746-3.075-14.259-2.28-20.076 1.433 8.714 5.552 12.249 16.796 7.841 26.466l-61.86 134.432 37.43 92.823c2.484 6.159-1.424 13.025-7.987 14.035l-159.86 24.6c2.167 1.786 5.054 2.71 8.107 2.24l174.417-26.842c6.564-1.01 10.471-7.876 7.987-14.035l-37.43-92.823 61.86-134.432c4.824-10.582.155-23.073-10.429-27.897z" fill="#eed05e"/><path d="m42.997 434.776c-.269 6.482 5.448 11.595 11.86 10.608l174.417-26.842c6.564-1.01 10.471-7.876 7.987-14.035l-11.36-28.171-181.59 26.704z" fill="#e7c33c"/></svg>