<svg id="Capa_1" enable-background="new 0 0 496.15 496.15" height="512" viewBox="0 0 496.15 496.15" width="512" xmlns="http://www.w3.org/2000/svg"><g><path d="m179.613 44.34-89.318 67.39-3.899 51.982v32.488l-25.991 43.535 4.548 13.645 14.945 8.447-3.248 72.713 14.945 46.846 28.59 12.995v5.414c.006.006.01.01.016.016h42.392c1.634 0 2.959 1.325 2.959 2.959v89.79c0 1.983 1.608 3.591 3.591 3.591h154.607c1.983 0 3.591-1.608 3.591-3.591v-95.47-352.75z" fill="#fed2a4"/><g><path d="m99.489 351.21.11-82.42-23.48-12.43c-3.73-1.97-5.08-6.65-2.98-10.31l28.78-50.19c1.4-2.44 2.14-5.2 2.14-8.01v-56.23c0-16.01 6.5-31.32 18.02-42.44l7.83-7.56 52.03-37.28h-27.228l-52.03 37.28-7.83 7.56c-11.52 11.12-18.02 26.43-18.02 42.44v56.23c0 2.81-.74 5.57-2.14 8.01l-28.78 50.19c-2.1 3.66-.75 8.34 2.98 10.31l23.48 12.43-.11 82.42c-.03 26.83 21.71 48.6 48.54 48.6h27.228c-26.83 0-48.57-21.77-48.54-48.6z" fill="#ffbd86"/></g><g id="XMLID_196_"><path d="m323.517 289.118-5.841-12.191-33.689 15.485-134.299 49.782c-3.884 1.439-5.865 5.755-4.425 9.639 1.121 3.024 3.986 4.895 7.033 4.895.866 0 1.747-.151 2.606-.47l134.298-49.781c.532-.197 1.024-.453 1.481-.749z" fill="#f9f7f8"/><path d="m432.684 225.954-105.344-10.482-16.34 25.248c.32 1.81.49 3.67.49 5.58v17.54c0 9.1-3.9 17.76-10.7 23.8l-27.31 24.26c-7.5 6.66-8.24 18.11-1.65 25.68l46.35 53.23c6.64 7.62 18.21 8.41 25.82 1.76l36.99-32.34c22.32-19.51 39.88-43.37 51.86-69.76 5.14-11.32 9.25-23.1 12.27-35.21z" fill="#baafb9"/></g><path d="m245.721 0h-165.46c-6.108 0-11.06 4.952-11.06 11.06v35.73c0 19.236 15.594 34.83 34.83 34.83h30.71c40.98 0 74.19 33.22 74.19 74.19v128.53c0 6.27 7.1 9.92 12.21 6.28l25.52-18.241c.728-.52 1.16-1.36 1.16-2.255v-13.684l-.325-.328-3.335-.078v-13.901l3.836-.372.191-.308.027-.154c1.07-6.788 4.281-12.865 8.926-17.509 5.76-5.76 13.72-9.32 22.51-9.32 15.67 0 28.71 11.33 31.35 26.25l134.12 14.54c4.02-16.12 6.11-32.82 6.11-49.75 0-113.5-92.01-205.51-205.51-205.51z" fill="#9b8e99"/><g><path d="m138.792 81.734c-17.98-1.372-32.145-16.613-32.145-34.944v-35.73c0-6.108 4.952-11.06 11.06-11.06h-37.446c-6.108 0-11.06 4.952-11.06 11.06v35.73c0 19.236 15.594 34.83 34.83 34.83h30.71c1.36 0 2.71.042 4.051.114z" fill="#8b8089"/></g><path d="m247.821 246.3c0-1.648.125-3.266.366-4.847-.03-.001-.059-.007-.089-.008l-85.362-3.165c-.093-.003-.185-.005-.278-.005h-51.42c-4.142 0-7.5 3.358-7.5 7.5s3.358 7.5 7.5 7.5h51.281l85.224 3.159c.093.004.186.005.278.005z" fill="#f9f7f8"/><path d="m162.461 245.78c-1.14-3.2-3.84-5.61-7.14-6.4-28.383-6.866-57.122-7.426-86.18-2.166-2.278 7.203-4.682 14.915-4.682 14.915l20.256 15.554 6.873 78.542 3.709 17.575c18.363 2.99 38.56 1.123 60.265-4.74 3.17-.86 5.74-3.21 6.85-6.3 12.879-35.56 12.829-71.22.049-106.98z" fill="#00f2a6"/><path d="m101.36 364.606c-1.215-4.257-1.877-8.748-1.871-13.396l.096-71.804c.009-6.53-3.597-12.528-9.368-15.583l-14.098-7.463c-3.73-1.97-5.08-6.65-2.98-10.31l5.982-10.433c-8.701 1.175-17.432 2.877-26.19 5.103l-4.6 1.11-2.42 4.22c-2.1 3.66-.75 8.34 2.98 10.31l23.48 12.43-.11 82.42c0 2.23.15 4.42.44 6.57l1.01-.14c8.702 3.683 17.936 5.961 27.649 6.966z" fill="#05e39c"/></g></svg>