<?xml version="1.0" encoding="iso-8859-1"?>
<!-- Generator: Adobe Illustrator 17.1.0, SVG Export Plug-In . SVG Version: 6.00 Build 0)  -->
<!DOCTYPE svg PUBLIC "-//W3C//DTD SVG 1.1//EN" "http://www.w3.org/Graphics/SVG/1.1/DTD/svg11.dtd">
<svg version="1.1" id="Capa_1" xmlns="http://www.w3.org/2000/svg" xmlns:xlink="http://www.w3.org/1999/xlink" x="0px" y="0px"
	 viewBox="0 0 213.68 213.68" style="enable-background:new 0 0 213.68 213.68;" xml:space="preserve">
<path d="M130.802,213.68c-2.568,0-4.895-1.52-5.925-3.872l-4.685-10.681c-0.397-0.906-0.599-1.867-0.599-2.856v-14.326
	c-0.733-0.335-1.435-0.73-2.103-1.187c-2.938-2.004-4.816-5.39-5.042-9.077l-5.55-31.42l-5.55,31.42
	c-0.226,3.688-2.104,7.073-5.042,9.077c-0.519,0.354-1.058,0.671-1.617,0.952v14.561c0,0.989-0.202,1.95-0.599,2.856l-4.685,10.682
	c-1.031,2.352-3.357,3.871-5.925,3.871c-2.178,0-4.196-1.085-5.397-2.901c-1.202-1.817-1.41-4.099-0.557-6.104l3.803-8.933v-13.805
	c-4.317-2.151-7.331-6.596-7.579-11.814c-0.003-0.06-0.003-0.119,0-0.18l2.522-59.379c-0.646,0.385-1.347,0.691-2.09,0.905
	l-1.025,9.262c-0.166,1.52-0.922,2.876-2.129,3.817c-1.206,0.941-2.704,1.347-4.221,1.137c-2.991-0.41-5.113-3.087-4.83-6.094
	l0.879-9.328c-1.835-1.436-3.134-3.559-3.47-6.043l-0.958-7.09c-1.226-9.068-0.743-18.174,1.436-27.063l3.697-15.089
	c0.11-0.45,0.374-0.849,0.745-1.126l15.983-11.95c1.334-0.997,2.422-2.271,3.199-3.719c0.026-0.055,0.054-0.108,0.084-0.16
	c0.431-0.836,0.759-1.728,0.972-2.655c1.513-6.603,4.385-18.662,6.625-25.246c2.865-8.428,11.433-10.292,15.672-10.11
	c4.235-0.188,12.808,1.684,15.673,10.11c2.236,6.577,5.096,19.124,6.602,26.018c0.148,0.68,0.357,1.339,0.622,1.971
	c0.043,0.083,0.081,0.169,0.112,0.258c0.838,1.868,2.172,3.48,3.887,4.667l15.58,10.774c0.402,0.277,0.688,0.693,0.805,1.169
	l3.697,15.089c2.178,8.89,2.661,17.995,1.436,27.063l-0.958,7.09c-0.351,2.6-1.758,4.805-3.729,6.239l0.861,9.132
	c0.283,3.007-1.839,5.684-4.831,6.094c-1.517,0.21-3.015-0.196-4.221-1.137c-1.207-0.941-1.963-2.298-2.129-3.819l-1.021-9.344
	c-0.653-0.211-1.27-0.494-1.845-0.839l2.667,59.392c0.003,0.062,0.002,0.123,0,0.185c-0.239,5.02-3.037,9.323-7.092,11.559v14.061
	l3.803,8.933c0.853,2.005,0.645,4.286-0.557,6.104C134.998,212.595,132.98,213.68,130.802,213.68z M123.593,183.126v13.146
	c0,0.433,0.088,0.853,0.262,1.249l4.685,10.682c0.394,0.898,1.282,1.479,2.262,1.479c0.844,0,1.595-0.403,2.061-1.107
	c0.466-0.705,0.543-1.554,0.212-2.331l-3.962-9.308c-0.105-0.247-0.16-0.514-0.16-0.783v-13.044
	c-0.516,0.094-1.043,0.158-1.579,0.19C126.144,183.376,124.808,183.313,123.593,183.126z M85.328,183.186v12.965
	c0,0.27-0.054,0.536-0.16,0.783l-3.962,9.308c-0.331,0.777-0.253,1.626,0.212,2.331c0.466,0.704,1.217,1.107,2.061,1.107
	c0.98,0,1.869-0.58,2.262-1.478l4.685-10.683c0.174-0.396,0.262-0.816,0.262-1.249v-13.228c-1.36,0.251-2.868,0.344-4.27,0.254
	C86.052,183.275,85.687,183.238,85.328,183.186z M108.955,128.914l7.453,42.189c0.014,0.081,0.023,0.164,0.028,0.246
	c0.126,2.496,1.363,4.778,3.308,6.104c1.825,1.244,4.038,1.875,6.577,1.875c0.277,0,0.548-0.008,0.812-0.023
	c4.737-0.287,8.636-4.356,8.914-9.283l-2.959-65.92c-0.085-0.595-0.111-1.206-0.073-1.827c0.001-0.02,0.002-0.039,0.004-0.059
	l0.875-13.376l1.484-16.343c0.1-1.101,1.061-1.901,2.173-1.812c1.1,0.101,1.911,1.073,1.811,2.173l-1.48,16.293l-0.866,13.246
	l0.059,1.303c0.37,2.079,2.045,3.766,4.215,4.07c0.027,0.003,0.053,0.007,0.08,0.011l3.062,0.408
	c1.092,0.147,2.148-0.056,3.062-0.52c0.03-0.017,0.061-0.033,0.093-0.048c1.444-0.769,2.512-2.197,2.747-3.937l0.958-7.09
	c1.158-8.57,0.702-17.176-1.356-25.577l-3.517-14.352L131.46,46.325c-0.865-0.599-1.659-1.277-2.374-2.024
	c-1.662,6.318-6.446,16.251-20.132,17.181V128.914z M77.749,170.02c0.277,4.928,4.177,8.998,8.913,9.285
	c0.265,0.016,0.535,0.023,0.813,0.023c2.539,0,4.751-0.631,6.577-1.875c1.945-1.326,3.181-3.608,3.308-6.104
	c0.004-0.082,0.014-0.165,0.028-0.246l7.483-42.362c0.02-0.111,0.048-0.218,0.084-0.321V61.496
	C90.75,60.642,85.83,50.164,84.15,43.859c-0.46,0.444-0.95,0.861-1.466,1.247L67.275,56.628l-3.527,14.392
	c-2.058,8.401-2.515,17.007-1.356,25.577l0.958,7.09c0.387,2.865,3.029,4.885,5.901,4.504l3.106-0.414
	c2.109-0.281,3.758-1.866,4.206-3.854c0.011-0.075,0.026-0.149,0.044-0.221c0.069-0.387,0.092-0.786,0.066-1.193l-0.877-13.406
	l-1.476-16.243c-0.1-1.1,0.711-2.072,1.811-2.173c1.098-0.09,2.073,0.711,2.173,1.812l1.48,16.293l0.881,13.456
	c0.05,0.759,0.002,1.503-0.131,2.222L77.749,170.02z M143.324,112.078l0.898,8.218c0.048,0.438,0.266,0.829,0.613,1.101
	c0.348,0.271,0.783,0.393,1.216,0.327c0.863-0.118,1.474-0.89,1.393-1.756l-0.742-7.866c-0.904,0.156-1.846,0.181-2.802,0.054
	L143.324,112.078z M66.705,112.05l-0.747,7.918c-0.082,0.866,0.53,1.638,1.392,1.756c0.437,0.061,0.869-0.057,1.216-0.327
	c0.348-0.271,0.565-0.662,0.613-1.102l0.905-8.181l-0.306,0.041C68.728,112.295,67.692,112.253,66.705,112.05z M87.338,39.431
	c0.31,3.042,2.695,18.12,19.502,18.12c17.001,0,18.895-15.327,19.099-18.159c-0.307-0.772-0.552-1.574-0.732-2.398
	c-1.488-6.812-4.308-19.192-6.481-25.584c-2.597-7.637-11.198-7.421-11.77-7.398c-0.072,0.003-0.144,0.003-0.217,0
	c-0.415-0.017-9.163-0.313-11.784,7.398c-2.182,6.416-5.017,18.324-6.512,24.852C88.19,37.362,87.818,38.425,87.338,39.431z
	 M90.627,86.207c-4.411,0-8-3.589-8-8s3.589-8,8-8s8,3.589,8,8S95.038,86.207,90.627,86.207z M90.627,74.207c-2.206,0-4,1.794-4,4
	s1.794,4,4,4s4-1.794,4-4S92.832,74.207,90.627,74.207z M115.269,41.057c-0.275,0-0.555-0.058-0.822-0.179
	c-1.006-0.454-1.454-1.639-1-2.646l2.386-5.284c0.455-1.007,1.64-1.452,2.646-1c1.006,0.455,1.454,1.64,1,2.646l-2.386,5.284
	C116.759,40.619,116.031,41.057,115.269,41.057z M98.594,41.057c-0.762,0-1.49-0.438-1.824-1.178l-2.386-5.284
	c-0.455-1.007-0.007-2.191,1-2.646c1.006-0.452,2.191-0.007,2.646,1l2.386,5.284c0.455,1.007,0.007,2.191-1,2.646
	C99.149,41,98.869,41.057,98.594,41.057z M109.265,30.317h-4.62c-4.962,0-9-4.037-9-9v-1.642c0-4.963,4.038-9,9-9h4.62
	c4.962,0,9,4.037,9,9v1.642C118.265,26.28,114.227,30.317,109.265,30.317z M104.645,14.675c-2.757,0-5,2.243-5,5v1.642
	c0,2.757,2.243,5,5,5h4.62c2.757,0,5-2.243,5-5v-1.642c0-2.757-2.243-5-5-5H104.645z"/>
<g>
</g>
<g>
</g>
<g>
</g>
<g>
</g>
<g>
</g>
<g>
</g>
<g>
</g>
<g>
</g>
<g>
</g>
<g>
</g>
<g>
</g>
<g>
</g>
<g>
</g>
<g>
</g>
<g>
</g>
</svg>
