<svg id="Capa_1" enable-background="new 0 0 497 497" height="512" viewBox="0 0 497 497" width="512" xmlns="http://www.w3.org/2000/svg"><g><path d="m116.75.615.005 495.771c6.042-.001 12.084-1.82 17.264-5.457 60.158-42.239 99.481-111.955 99.481-191.044v-182.52c0-64.48-52.271-116.75-116.75-116.75z" fill="#9bfef7"/><path d="m203.5 299.885v-182.52c0-64.479-38.839-116.75-86.75-116.75-64.479 0-116.75 52.27-116.75 116.75v182.521c0 79.088 39.323 148.804 99.481 191.042 5.183 3.639 11.229 5.458 17.274 5.457 4.489-.001 8.978-1.82 12.827-5.457 44.7-42.238 73.918-111.954 73.918-191.043z" fill="#dbfffc"/><path d="m184.165 130.774c-2.021-4.036-3.165-8.588-3.165-13.41s1.144-9.373 3.165-13.41c-3.412-2.956-6.211-6.723-8.056-11.178-1.845-4.454-2.53-9.097-2.208-13.6-4.283-1.425-8.311-3.835-11.72-7.244s-5.819-7.437-7.244-11.72c-4.503.323-9.146-.363-13.6-2.208s-8.222-4.644-11.178-8.056c-4.036 2.021-8.588 3.165-13.41 3.165-4.821 0-9.373-1.144-13.409-3.165v188.468c4.036-2.021 8.588-3.165 13.409-3.165s9.373 1.144 13.41 3.165c2.956-3.412 6.723-6.21 11.178-8.056 4.454-1.845 9.098-2.53 13.6-2.208 1.425-4.283 3.835-8.311 7.244-11.72s7.437-5.819 11.72-7.244c-.323-4.503.363-9.146 2.208-13.6s4.644-8.222 8.056-11.178c-2.021-4.036-3.165-8.588-3.165-13.41s1.144-9.373 3.165-13.41c-2.021-4.036-3.165-8.588-3.165-13.41s1.144-9.369 3.165-13.406z" fill="#4ad6cf"/><path d="m113.083 230.363c3.883-1.845 7.93-2.53 11.854-2.208 1.425-4.283 3.835-8.311 7.244-11.72s7.437-5.819 11.72-7.244c-.323-4.503.363-9.146 2.208-13.6s4.644-8.222 8.056-11.178c-2.021-4.036-3.165-8.588-3.165-13.41s1.144-9.373 3.165-13.41c-2.021-4.036-3.165-8.588-3.165-13.41s1.144-9.373 3.165-13.41c-2.021-4.036-3.165-8.588-3.165-13.41s1.144-9.373 3.165-13.41c-3.412-2.956-6.211-6.723-8.056-11.178-1.845-4.454-2.53-9.097-2.208-13.6-4.283-1.425-8.311-3.835-11.72-7.244s-5.819-7.437-7.244-11.72c-3.925.323-7.972-.363-11.854-2.208s-7.166-4.644-9.742-8.055c-2.956 3.411-6.724 6.21-11.178 8.055s-9.097 2.53-13.6 2.208c-1.425 4.283-3.835 8.311-7.244 11.72s-7.437 5.819-11.72 7.244c.323 4.503-.363 9.146-2.208 13.6s-4.644 8.222-8.056 11.178c2.021 4.036 3.165 8.588 3.165 13.41s-1.144 9.373-3.165 13.41c2.021 4.036 3.165 8.588 3.165 13.41s-1.144 9.373-3.165 13.41c2.021 4.036 3.165 8.588 3.165 13.41s-1.144 9.373-3.165 13.41c3.412 2.956 6.211 6.723 8.056 11.178s2.53 9.097 2.208 13.6c4.283 1.425 8.311 3.835 11.72 7.244s5.819 7.437 7.244 11.72c4.503-.323 9.146.363 13.6 2.208s8.222 4.644 11.178 8.056c2.576-3.412 5.86-6.211 9.742-8.056z" fill="#4ef5e9"/><path d="m380.25.615.005 495.771c6.042-.001 12.084-1.82 17.264-5.457 60.158-42.239 99.481-111.955 99.481-191.044v-182.52c0-64.48-52.271-116.75-116.75-116.75z" fill="#9bfef7"/><path d="m467 299.885v-182.52c0-64.479-38.839-116.75-86.75-116.75-64.479 0-116.75 52.271-116.75 116.75v182.521c0 79.088 39.323 148.804 99.481 191.042 5.183 3.639 11.229 5.458 17.274 5.457 4.489-.001 8.978-1.82 12.827-5.457 44.7-42.238 73.918-111.954 73.918-191.043z" fill="#dbfffc"/><path d="m447.665 130.774c-2.021-4.036-3.165-8.588-3.165-13.41s1.144-9.373 3.165-13.41c-3.412-2.956-6.211-6.723-8.056-11.178-1.845-4.454-2.53-9.097-2.208-13.6-4.283-1.425-8.311-3.835-11.72-7.244s-5.819-7.437-7.244-11.72c-4.503.323-9.146-.363-13.6-2.208s-8.222-4.644-11.178-8.056c-4.036 2.021-8.588 3.165-13.41 3.165-4.821 0-9.373-1.144-13.409-3.165v188.468c4.036-2.021 8.588-3.165 13.409-3.165s9.373 1.144 13.41 3.165c2.956-3.412 6.723-6.21 11.178-8.056 4.454-1.845 9.098-2.53 13.6-2.208 1.425-4.283 3.835-8.311 7.244-11.72s7.437-5.819 11.72-7.244c-.323-4.503.363-9.146 2.208-13.6s4.644-8.222 8.056-11.178c-2.021-4.036-3.165-8.588-3.165-13.41s1.144-9.373 3.165-13.41c-2.021-4.036-3.165-8.588-3.165-13.41s1.144-9.369 3.165-13.406z" fill="#4ad6cf"/><path d="m376.583 230.363c3.883-1.845 7.93-2.53 11.854-2.208 1.425-4.283 3.835-8.311 7.244-11.72s7.437-5.819 11.72-7.244c-.323-4.503.363-9.146 2.208-13.6s4.644-8.222 8.056-11.178c-2.021-4.036-3.165-8.588-3.165-13.41s1.144-9.373 3.165-13.41c-2.021-4.036-3.165-8.588-3.165-13.41s1.144-9.373 3.165-13.41c-2.021-4.036-3.165-8.588-3.165-13.41s1.144-9.373 3.165-13.41c-3.412-2.956-6.211-6.723-8.056-11.178-1.845-4.454-2.53-9.097-2.208-13.6-4.283-1.425-8.311-3.835-11.72-7.244s-5.819-7.437-7.244-11.72c-3.925.323-7.972-.363-11.854-2.208s-7.166-4.644-9.742-8.055c-2.956 3.411-6.724 6.21-11.178 8.055s-9.097 2.53-13.6 2.208c-1.425 4.283-3.835 8.311-7.244 11.72s-7.437 5.819-11.72 7.244c.323 4.503-.363 9.146-2.208 13.6s-4.644 8.222-8.056 11.178c2.021 4.036 3.165 8.588 3.165 13.41s-1.144 9.373-3.165 13.41c2.021 4.036 3.165 8.588 3.165 13.41s-1.144 9.373-3.165 13.41c2.021 4.036 3.165 8.588 3.165 13.41s-1.144 9.373-3.165 13.41c3.412 2.956 6.211 6.723 8.056 11.178s2.53 9.097 2.208 13.6c4.283 1.425 8.311 3.835 11.72 7.244s5.819 7.437 7.244 11.72c4.503-.323 9.146.363 13.6 2.208s8.222 4.644 11.178 8.056c2.576-3.412 5.86-6.211 9.742-8.056z" fill="#4ef5e9"/></g></svg>