<svg height="512" viewBox="0 0 512 512" width="512" xmlns="http://www.w3.org/2000/svg"><g><g><g><path d="m192 224h-176v-144l88-40 88 40z" fill="#57565c"/><path d="m40 112h128v112h-128z" fill="#acabb1"/><path d="m40 112h128v24h-128z" fill="#2d2d30"/><g fill="#a0815c"><path d="m40 192h32v32h-32z"/><path d="m72 192h32v32h-32z"/></g></g><g><path d="m496 224h-176v-144l88-40 88 40z" fill="#57565c"/><path d="m344 112h128v112h-128z" fill="#acabb1"/><path d="m344 112h128v24h-128z" fill="#2d2d30"/><g fill="#a0815c"><path d="m344 192h32v32h-32z"/><path d="m376 192h32v32h-32z"/></g></g><g><path d="m224 376v80h-72v-48l24-32z" fill="#e0e0e2"/><path d="m160.33 400h31.67v24h-40" fill="#2488ff"/><path d="m224 352h104v64h-104z" fill="#ffda44"/><path d="m224 416h104v40h-104z" fill="#57565c"/><g fill="#2d2d30"><circle cx="192" cy="456" r="16"/><circle cx="288" cy="456" r="16"/></g></g></g><path d="m499.31 72.72-88-40a7.968 7.968 0 0 0 -6.62 0l-88 40a7.988 7.988 0 0 0 -4.69 7.28v144a8 8 0 0 0 8 8h88v40h-304v-40h88a8 8 0 0 0 8-8v-144a7.988 7.988 0 0 0 -4.69-7.28l-88-40a7.968 7.968 0 0 0 -6.62 0l-88 40a7.988 7.988 0 0 0 -4.69 7.28v144a8 8 0 0 0 8 8h72v48a8 8 0 0 0 8 8h152v56h-24a8 8 0 0 0 -8 8v16h-40a8.009 8.009 0 0 0 -6.4 3.2l-24 32a7.982 7.982 0 0 0 -1.6 4.8v48a8 8 0 0 0 8 8h17.38a23.99 23.99 0 0 0 45.24 0h50.76a23.99 23.99 0 0 0 45.24 0h17.38a8 8 0 0 0 8-8v-104a8 8 0 0 0 -8-8h-64v-56h152a8 8 0 0 0 8-8v-48h72a8 8 0 0 0 8-8v-144a7.988 7.988 0 0 0 -4.69-7.28zm-339.31 55.28h-112v-8h112zm-128-16v104h-8v-130.85l80-36.36 80 36.36v130.85h-8v-104a8 8 0 0 0 -8-8h-128a8 8 0 0 0 -8 8zm32 104h-16v-16h16zm-16-32v-40h112v72h-48v-24a8 8 0 0 0 -8-8zm48 32h-16v-16h16zm64 194.67 2-2.67h22v8h-24zm32 53.33a8 8 0 1 1 8-8 8.011 8.011 0 0 1 -8 8zm24-16h-1.38a23.99 23.99 0 0 0 -45.24 0h-9.38v-16h32a8 8 0 0 0 8-8v-24a8 8 0 0 0 -8-8h-18l6-8h36zm72 16a8 8 0 1 1 8-8 8.011 8.011 0 0 1 -8 8zm32-16h-9.38a23.99 23.99 0 0 0 -45.24 0h-33.38v-24h88zm0-88v48h-88v-48zm48-144h-16v-16h16zm32 0h-16v-16h16zm64 0h-48v-24a8 8 0 0 0 -8-8h-56v-40h112zm0-88h-112v-8h112zm24 88h-8v-104a8 8 0 0 0 -8-8h-128a8 8 0 0 0 -8 8v104h-8v-130.85l80-36.36 80 36.36z"/></g></svg>