<svg height="512" viewBox="0 0 512 512" width="512" xmlns="http://www.w3.org/2000/svg"><g id="Flat"><path d="m387.1 304a14.11 14.11 0 0 0 -12.1 6.86l-84.29 140.46a18.93 18.93 0 0 0 2.85 23.13 18.89 18.89 0 0 0 13.44 5.55h160.26a18.9 18.9 0 0 0 13.39-5.55 18.94 18.94 0 0 0 2.85-23.13l-84.28-140.46a14.13 14.13 0 0 0 -12.12-6.86z" fill="#fcc200"/><path d="m467.26 488h-160.26a26.93 26.93 0 0 1 -23.1-40.79l84.28-140.47a22.13 22.13 0 0 1 37.95 0l84.28 140.47a26.94 26.94 0 0 1 -23.15 40.79zm-80.16-176a6.14 6.14 0 0 0 -5.25 3l-84.28 140.44a10.93 10.93 0 0 0 9.43 16.56h160.26a10.94 10.94 0 0 0 9.38-16.56l-84.28-140.44a6.16 6.16 0 0 0 -5.26-3z" fill="#2c3f51"/><path d="m387.1 424a8 8 0 0 1 -8-8v-48a8 8 0 0 1 16 0v48a8 8 0 0 1 -8 8z" fill="#2c3f51"/><circle cx="387.1" cy="448" fill="#2c3f51" r="8"/><path d="m96 64-64 192 32 24 72-216z" fill="#00a8e7"/><path d="m40 232-16-8 8-40h24z" fill="#0598c6"/><path d="m136 64h48l16-40h128v40 208h-72v72h-48v104l16 40h-144a173.88 173.88 0 0 1 11.39-61.9l24-63a61.53 61.53 0 0 0 -51.39-83.1z" fill="#eceff0"/><path d="m256 272v56h40s-8-16-8-32 8-24 8-24z" fill="#e92949"/><path d="m328 64h56v208h-56z" fill="#00a8e7"/><path d="m328 24h32v40h-32z" fill="#0598c6"/><path d="m272 72h-88a8 8 0 0 1 0-16h88a8 8 0 0 1 0 16z" fill="#d1e1e5"/><path d="m208 344h-16a16 16 0 0 0 -16 16 16 16 0 0 0 16 16h16z" fill="#00a8e7"/><path d="m208 408h-16a16 16 0 0 0 -16 16 16 16 0 0 0 16 16h16z" fill="#00a8e7"/><path d="m448 269a8 8 0 0 1 -5.5-13.81 120 120 0 0 0 0-174.28 8 8 0 1 1 11-11.62 136 136 0 0 1 0 197.52 7.94 7.94 0 0 1 -5.5 2.19z" fill="#e92949"/><path d="m431.55 240a8 8 0 0 1 -6-13.34 88 88 0 0 0 .45-116.86 8 8 0 0 1 12-10.59 104 104 0 0 1 -.49 138.13 8 8 0 0 1 -5.96 2.66z" fill="#e92949"/><path d="m415.43 208a8 8 0 0 1 -6.92-12 56 56 0 0 0 0-56 8 8 0 0 1 13.85-8 72.08 72.08 0 0 1 0 72 8 8 0 0 1 -6.93 4z" fill="#e92949"/><path d="m328 240h-248l48-144h200z" fill="#c0dce2"/><g fill="#2c3f51"><path d="m152 128h-24a8 8 0 0 0 0 16h16v16h-16a8 8 0 0 0 0 16h16v16h-16a8 8 0 0 0 0 16h24a8 8 0 0 0 8-8v-64a8 8 0 0 0 -8-8z"/><path d="m208 128h-24a8 8 0 0 0 0 16h16v56a8 8 0 0 0 16 0v-64a8 8 0 0 0 -8-8z"/><circle cx="240" cy="200" r="8"/><path d="m296 160h-16v-16h16a8 8 0 0 0 0-16h-24a8 8 0 0 0 -8 8v32a8 8 0 0 0 8 8h16v16h-16a8 8 0 0 0 0 16h24a8 8 0 0 0 8-8v-32a8 8 0 0 0 -8-8z"/></g><path d="m208 320a8 8 0 0 1 -8-8 32 32 0 0 0 -32-32h-104a8 8 0 0 1 0-16h104a48.05 48.05 0 0 1 48 48 8 8 0 0 1 -8 8z" fill="#d1e1e5"/></g></svg>