<svg id="Layer_3" enable-background="new 0 0 64 64" height="512" viewBox="0 0 64 64" width="512" xmlns="http://www.w3.org/2000/svg"><g><path d="m29 51.776c-3.343-.503-6.415-1.833-9.001-3.776 0 0-1.939 1.938-1.939 1.938-.678.68-1.06 1.602-1.06 2.562 0 .96-.382 1.882-1.061 2.561l-.939.939h-.172c-1.811 0-3.548-.719-4.828-2-1.281-1.281-2-3.017-2-4.828v-.172l.939-.939c.679-.679 1.601-1.061 2.561-1.061.96 0 1.882-.382 2.561-1.061 0 0 1.939-1.939 1.939-1.938-1.943-2.586-3.273-5.658-3.776-9.001v-6c.503-3.343 1.833-6.415 3.776-9.001 0 0-1.939-1.939-1.939-1.939-.679-.678-1.601-1.06-2.561-1.06-.96 0-1.882-.382-2.561-1.061l-.939-.939v-.172c0-1.811.719-3.548 2-4.828 1.281-1.281 3.017-2 4.828-2h.172l.939.939c.679.679 1.061 1.601 1.061 2.561 0 .96.382 1.882 1.061 2.561 0 0 1.939 1.939 1.939 1.939 2.586-1.943 5.658-3.273 9.001-3.776h6c3.343.503 6.415 1.833 9.001 3.776 0 0 1.939-1.939 1.939-1.939.677-.679 1.059-1.601 1.059-2.561 0-.96.382-1.882 1.061-2.561l.939-.939h.172c1.811 0 3.548.719 4.828 2 1.281 1.281 2 3.017 2 4.828v.172l-.939.939c-.679.679-1.601 1.061-2.561 1.061-.96 0-1.882.382-2.561 1.061 0 0-1.939 1.939-1.938 1.939 1.943 2.586 3.273 5.658 3.776 9.001v6c-.503 3.343-1.833 6.415-3.776 9.001 0 0 1.939 1.939 1.939 1.939.678.677 1.6 1.059 2.56 1.059.96 0 1.882.382 2.561 1.061l.939.939v.172c0 1.811-.719 3.548-2 4.828-1.281 1.281-3.017 2-4.828 2h-.172l-.939-.939c-.679-.679-1.061-1.601-1.061-2.561 0-.96-.382-1.882-1.061-2.561 0 0-1.939-1.939-1.939-1.939-2.586 1.943-5.658 3.273-9.001 3.776" fill="#2862be"/><circle cx="33" cy="33" fill="#2458ad" r="17"/><circle cx="34" cy="34" fill="#2862be" r="14"/><path d="m27 18 .613-.92c.904-1.356 1.387-2.95 1.387-4.58 0-1.574-.741-3.056-2-4-1.259-.944-2-2.426-2-4v-.5c1.956-1.304 4.255-2 6.606-2h.79c2.35 0 4.648.696 6.604 2v.5c0 1.574-.741 3.056-2 4-1.259.944-2 2.426-2 4 0 1.63.483 3.224 1.387 4.58l.613.92" fill="#3279ea"/><path d="m27 46 .613.92c.904 1.356 1.387 2.95 1.387 4.58 0 1.574-.741 3.056-2 4-1.259.944-2 2.426-2 4v.5c1.956 1.304 4.255 2 6.606 2h.79c2.351 0 4.649-.696 6.605-2v-.5c0-1.574-.741-3.056-2-4-1.259-.944-2-2.426-2-4 0-1.63.483-3.224 1.387-4.58l.612-.92" fill="#3279ea"/><path d="m18 37-.92-.613c-1.356-.904-2.95-1.387-4.58-1.387-1.574 0-3.056.741-4 2-.944 1.259-2.426 2-4 2h-.5c-1.304-1.956-2-4.255-2-6.606v-.79c0-2.35.696-4.648 2-6.604h.5c1.574 0 3.056.741 4 2 .944 1.259 2.426 2 4 2 1.63 0 3.224-.483 4.58-1.387l.92-.613" fill="#3279ea"/><path d="m46 37 .92-.613c1.356-.904 2.95-1.387 4.58-1.387 1.574 0 3.056.741 4 2 .944 1.259 2.426 2 4 2h.5c1.304-1.956 2-4.255 2-6.606v-.79c0-2.351-.696-4.649-2-6.605h-.5c-1.574 0-3.056.741-4 2-.944 1.259-2.426 2-4 2-1.63 0-3.224-.483-4.58-1.387l-.92-.612" fill="#3279ea"/><circle cx="22" cy="23" fill="#3279ea" r="2"/><circle cx="36" cy="29" fill="#3279ea" r="4"/><circle cx="26" cy="38" fill="#3279ea" r="5"/><circle cx="39.5" cy="40.5" fill="#3279ea" r="2.5"/><circle cx="42" cy="22" fill="#3279ea" r="2"/><circle cx="11" cy="14" fill="#3279ea" r="2"/><g fill="#2862be"><circle cx="32" cy="7" r="3"/><circle cx="30" cy="16" r="1"/><circle cx="32.5" cy="13.5" r="1.5"/><circle cx="32" cy="57" r="3"/><circle cx="30" cy="48" r="1"/><circle cx="32.5" cy="50.5" r="1.5"/><circle cx="7" cy="32" r="3"/><circle cx="16" cy="34" r="1"/><circle cx="13.5" cy="31.5" r="1.5"/><circle cx="57" cy="32" r="3"/><circle cx="48" cy="34" r="1"/><circle cx="50.5" cy="31.5" r="1.5"/></g><circle cx="15.5" cy="16.5" fill="#3279ea" r="1.5"/><circle cx="15" cy="11" fill="#3279ea" r="1"/><circle cx="50" cy="11" fill="#3279ea" r="2"/><circle cx="50.5" cy="15.5" fill="#3279ea" r="1.5"/><circle cx="47" cy="16" fill="#3279ea" r="1"/><circle cx="11" cy="50" fill="#3279ea" r="2"/><circle cx="15.5" cy="47.5" fill="#3279ea" r="1.5"/><circle cx="15" cy="53" fill="#3279ea" r="1"/><circle cx="50" cy="53" fill="#3279ea" r="2"/><circle cx="50.5" cy="48.5" fill="#3279ea" r="1.5"/><circle cx="47" cy="48" fill="#3279ea" r="1"/><circle cx="27" cy="37" fill="#7aadf9" r="3"/><circle cx="37" cy="30" fill="#7aadf9" r="2"/><circle cx="40" cy="41" fill="#7aadf9" r="1"/><circle cx="7.5" cy="32.5" fill="#3279ea" r="1.5"/><circle cx="57.5" cy="32.5" fill="#3279ea" r="1.5"/><circle cx="32.5" cy="6.5" fill="#3279ea" r="1.5"/><circle cx="31.5" cy="57.5" fill="#3279ea" r="1.5"/></g></svg>